<?xml version="1.0" encoding="utf-8"?>
<!-- Generator: Adobe Illustrator 28.0.0, SVG Export Plug-In . SVG Version: 6.00 Build 0)  -->
<svg version="1.1" id="Capa_1" xmlns="http://www.w3.org/2000/svg" xmlns:xlink="http://www.w3.org/1999/xlink" x="0px" y="0px"
	 viewBox="0 0 141.73 141.73" style="enable-background:new 0 0 141.73 141.73;" xml:space="preserve">
<style type="text/css">
	.st0{fill:#FFFFFF;}
</style>
<path class="st0" d="M92.55,59.46c-0.16-0.01-0.32-0.02-0.48-0.03c-0.19-0.01-0.38-0.02-0.57-0.03c-0.13-0.01-0.25-0.01-0.38-0.02
	H91.1c-0.01,0-0.02,0-0.03,0c-0.03,0-0.05,0-0.07,0c-0.05,0-0.09,0-0.12-0.01c-0.03,0-0.04,0-0.04,0c-0.54-0.03-1.28-0.13-2.07-0.25
	c-0.67-0.1-1.37-0.2-2-0.25l-0.05,0c-0.08-0.01-0.16-0.01-0.24-0.02c-0.09-0.01-0.19-0.01-0.28-0.02c-0.04,0-0.08,0-0.13,0
	c-0.55,0.01-1.97,0.2-4.31,0.51h-0.01c-0.08,0.01-0.15,0.02-0.24,0.03l-0.11,0.01c-0.04,0.01-0.09,0.01-0.14,0.02
	c-0.15,0.03-0.32,0.05-0.5,0.09c0,0-0.01,0-0.01,0c-0.28,0.05-0.45-0.29-0.26-0.49c0.05-0.05,0.1-0.1,0.15-0.15
	c0.06-0.06,0.11-0.11,0.17-0.17c0.13-0.12,0.24-0.22,0.35-0.32c0.13-0.11,0.25-0.21,0.37-0.31c0.13-0.11,0.26-0.2,0.38-0.29
	l0.06-0.05c0.06-0.04,0.11-0.08,0.17-0.12c0.11-0.08,0.23-0.16,0.35-0.23c0.06-0.04,0.13-0.09,0.2-0.13
	c0.15-0.09,0.29-0.16,0.41-0.23c0.07-0.04,0.14-0.07,0.21-0.11c0.07-0.04,0.14-0.07,0.2-0.1c0.02-0.01,0.04-0.02,0.07-0.03
	c0.03-0.01,0.05-0.02,0.07-0.03c0.04-0.02,0.08-0.04,0.13-0.06c0.01-0.01,0.02-0.01,0.04-0.02c0.03-0.01,0.07-0.03,0.1-0.04
	c0.02-0.01,0.03-0.01,0.05-0.02c0.01-0.01,0.03-0.01,0.05-0.02c0.02-0.01,0.04-0.02,0.07-0.03l0.1-0.03l0.02,0l0.03,0
	c0,0,0.01,0,0.01,0l0.04,0.01c1.88,0.37,3.6,0.86,5.1,1.44c0.18,0.07,0.35,0.14,0.52,0.21c0.01,0,0.02,0.01,0.03,0.01l0.28,0.12
	c0.02,0.01,0.04,0.02,0.06,0.02l0.04,0.02c0.01,0.01,0.03,0.01,0.04,0.02c0.02,0.01,0.03,0.01,0.04,0.02
	c0.03,0.02,0.07,0.03,0.1,0.05c0.03,0.01,0.05,0.02,0.08,0.04l0.08,0.03v0c0.03,0.01,0.06,0.03,0.09,0.04l0.12,0.05
	c0.02,0.01,0.04,0.02,0.05,0.03c0.05,0.02,0.1,0.05,0.15,0.07c0.02,0.01,0.03,0.01,0.06,0.03c0.07,0.03,0.14,0.06,0.22,0.1
	c0.07,0.03,0.14,0.07,0.21,0.1l0.03,0.01c0.04,0.01,0.07,0.03,0.11,0.05c0.08,0.04,0.16,0.08,0.23,0.11
	C92.17,59.24,92.37,59.36,92.55,59.46"/>
<path class="st0" d="M91.59,60.21c-0.33,0.15-0.65,0.28-0.95,0.41c-0.27,0.11-0.54,0.21-0.76,0.3c-0.25,0.09-0.49,0.18-0.72,0.27
	c-0.11,0.04-0.22,0.08-0.33,0.11l-0.11,0.04c-0.06,0.02-0.13,0.04-0.19,0.07l-0.06,0.02c-0.2,0.07-0.41,0.13-0.64,0.21
	c-0.49,0.15-0.97,0.29-1.41,0.4c-0.07,0.02-0.15,0.04-0.22,0.05c-0.09,0.02-0.18,0.04-0.26,0.06l-0.15,0.03
	c-0.14,0.03-0.27,0.06-0.39,0.08l-0.03,0.01c-0.06,0.01-0.12,0.02-0.18,0.04c-0.07,0.01-0.13,0.03-0.2,0.04
	c-0.06,0.01-0.12,0.02-0.18,0.03c-0.08,0.01-0.16,0.03-0.23,0.04l-0.08,0.01c-0.04,0.01-0.09,0.01-0.13,0.02
	c-0.02,0-0.04,0-0.07,0.01l-0.03,0.01c-0.01,0-0.03,0-0.04,0c-0.08,0.01-0.14,0.02-0.18,0.02c-0.03,0-0.05,0-0.08,0
	c-0.11-0.02-0.21-0.04-0.31-0.06c-0.12-0.03-0.23-0.05-0.35-0.08c-0.11-0.03-0.23-0.06-0.34-0.09c-0.11-0.03-0.22-0.07-0.32-0.1
	c-0.1-0.03-0.21-0.07-0.31-0.11c-0.3-0.11-0.57-0.23-0.83-0.35c-0.09-0.04-0.17-0.08-0.25-0.12c-0.13-0.07-0.25-0.14-0.38-0.21
	c-0.1-0.05-0.19-0.11-0.27-0.17c-0.09-0.06-0.17-0.11-0.25-0.16c-0.07-0.04-0.14-0.1-0.22-0.15c-0.07-0.05-0.13-0.1-0.19-0.14
	c-0.09-0.07-0.17-0.13-0.23-0.19c-0.06-0.05-0.12-0.1-0.16-0.14c0.05,0,0.11-0.01,0.17-0.01c0,0,0.01,0,0.04,0l0.03,0
	c0.01,0,0.03,0,0.05-0.01l0.13-0.01c0.15-0.01,0.37-0.03,0.61-0.05l0.05,0c0.02,0,0.04,0,0.06,0c0.27-0.02,0.57-0.04,0.87-0.06
	c0.04,0,0.08,0,0.12,0c0.15-0.01,0.31,0,0.5,0l0.11,0.01c0.07,0,0.14,0.01,0.21,0.01c0.06,0,0.13,0.01,0.2,0.02
	c0.21,0.02,0.42,0.04,0.69,0.07c0.24,0.03,0.5,0.06,0.76,0.08c0.2,0.02,0.4,0.04,0.61,0.05l0.3,0.02c0.06,0,0.11,0.01,0.17,0.01
	c0.42,0.02,0.81,0.02,1.22,0.01c0.06,0,0.12,0,0.18,0c0.08,0,0.17,0,0.26-0.01c0.01,0,0.03,0,0.04,0c0.01,0,0.03,0,0.04,0
	c0.12,0,0.23-0.01,0.35-0.02h0.02c0.18-0.01,0.37-0.02,0.55-0.03c0.3-0.02,0.6-0.04,0.89-0.06c0.13-0.01,0.26-0.02,0.38-0.03
	l0.3-0.02c0.2-0.02,0.38-0.03,0.54-0.05l0.17-0.01c0.06-0.01,0.11-0.01,0.17-0.01h0.01c0.16-0.01,0.3-0.02,0.39-0.03
	c0.02,0,0.04,0,0.06,0c0.01,0,0.03,0,0.04,0h0.02c0.07,0,0.27,0.01,0.53-0.02l0.08-0.01c0.01,0,0.02,0,0.03,0
	C91.54,60.21,91.57,60.21,91.59,60.21"/>
<path class="st0" d="M80.2,94.57c-0.07,2.07-0.31,4.27-0.71,6.52c-0.19,1.07-0.43,2.15-0.7,3.22c-0.18,0.73-0.38,1.47-0.6,2.19
	h-4.95c0.7-4.01,1.6-14.28-4.63-24.67c0,0,0,0,0,0c1.03,0.37,2.08,0.8,3.12,1.27c1.49,0.67,3,1.45,4.64,2.38
	c1.05,0.6,2.17,1.28,3.52,2.13C80.18,89.89,80.28,92.23,80.2,94.57"/>
<path class="st0" d="M82.26,91.04v-0.02c0-0.04,0-0.08,0-0.12c0-0.09,0-0.18,0-0.29l-0.01-0.51c0-0.14-0.01-0.27-0.01-0.41
	l-0.02-0.49c0-0.04,0-0.07,0-0.11c0-0.04,0-0.08-0.01-0.12v-0.03c0-0.17-0.01-0.33-0.02-0.47l-0.01-0.14h0
	c-0.01-0.19-0.03-0.39-0.05-0.58c0-0.01,0-0.02,0-0.02c-0.2-2.18-0.54-4.45-0.94-6.23c-0.01-0.04-0.02-0.08-0.03-0.12
	c-0.01-0.03-0.01-0.06-0.02-0.09c-0.01-0.07-0.03-0.14-0.05-0.21c-0.16-0.68-0.3-1.19-0.44-1.66c-0.07-0.25-0.15-0.51-0.25-0.82
	l-0.19-0.59c-0.01-0.05-0.02-0.09-0.04-0.14l-0.01-0.03c-0.01-0.04-0.02-0.08-0.03-0.12c-0.02-0.08-0.04-0.15-0.06-0.23l-0.07-0.37
	c-0.04-0.24-0.09-0.49-0.11-0.73c-0.06-0.5-0.07-0.99-0.06-1.46c0.04-0.97,0.23-1.93,0.56-2.87c0.17-0.48,0.37-0.93,0.59-1.34
	c0.11-0.21,0.24-0.42,0.37-0.62c0.08-0.12,0.14-0.21,0.19-0.29c0.03-0.05,0.07-0.09,0.1-0.13l0.05-0.06
	c0.01-0.01,0.03-0.04,0.04-0.04l0.11-0.16l3.02-4.79c6.52-1.33,10.09-3.69,10.48-3.96l1.09-0.76l-0.92-0.96
	c-0.11-0.12-2.81-2.89-10.11-4.46c0,0,0,0,0,0c-0.13-0.53-0.26-1-0.4-1.42c-0.17-0.51-0.37-1.05-0.61-1.58
	c-0.2-0.45-0.45-0.93-0.78-1.51c-0.05-0.09-0.1-0.17-0.16-0.25c-0.09-0.16-0.19-0.31-0.29-0.46l-0.24-0.35l-0.25-0.34
	c-0.3-0.41-0.65-0.83-1.08-1.3c-0.17-0.18-0.34-0.36-0.51-0.53L81,46.61c-0.2-0.2-0.41-0.4-0.63-0.58
	c-0.44-0.38-0.89-0.74-1.34-1.05c-0.47-0.33-0.95-0.63-1.43-0.89c-1.9-1.06-4.01-1.78-6.26-2.15c-2.29-0.37-4.53-0.33-6.65,0.13
	l-0.41,0.09c-0.14,0.03-0.26,0.07-0.39,0.1l-0.77,0.2c-0.12,0.04-0.25,0.07-0.37,0.11c-0.38,0.11-0.77,0.23-1.15,0.36
	c-0.35,0.11-0.71,0.24-1.05,0.37c-0.15,0.05-0.3,0.11-0.45,0.17c-0.13,0.05-0.26,0.1-0.38,0.15c-0.36,0.14-0.73,0.29-1.09,0.45
	c-0.38,0.16-0.75,0.34-1.12,0.52c-0.11,0.05-0.22,0.11-0.33,0.16c-0.13,0.07-0.26,0.13-0.39,0.2c-0.34,0.17-0.69,0.35-1.02,0.54
	c-0.39,0.21-0.79,0.45-1.17,0.67l-0.21,0.12c-0.16,0.1-0.33,0.21-0.49,0.31l-0.18,0.11c-0.22,0.13-0.43,0.27-0.64,0.41l-0.03,0.02
	c-0.82,0.54-1.66,1.16-2.56,1.88c-0.05,0.04-0.1,0.08-0.14,0.12c-0.05,0.04-0.1,0.08-0.15,0.12c-0.03,0.03-0.06,0.05-0.09,0.08
	l-0.01,0.01c-0.04,0.03-0.07,0.06-0.11,0.09l-0.02,0.01c-0.12,0.1-0.24,0.2-0.36,0.3c-0.05,0.04-0.1,0.09-0.15,0.13l-0.05,0.04
	c-0.05,0.04-0.09,0.08-0.14,0.12l-0.06,0.06c-0.02,0.02-0.04,0.04-0.06,0.05c-0.13,0.12-0.26,0.24-0.39,0.35
	c-0.11,0.1-0.22,0.2-0.33,0.31l-0.05,0.04c-0.1,0.09-0.19,0.18-0.28,0.27c-1.46,1.4-2.85,3.02-4.13,4.8
	c-0.53,0.74-1.08,1.57-1.74,2.62c-0.47,0.77-0.96,1.6-1.56,2.7c-0.42,0.77-0.86,1.62-1.38,2.67V35.23h30.84
	c6.28,0,11.82,1.06,16.45,3.15c4.63,2.09,8.24,5.11,10.73,8.95c2.5,3.85,3.76,8.47,3.76,13.74c0,5.27-1.28,9.87-3.82,13.69
	c-2.53,3.81-6.18,6.77-10.84,8.8l-0.1,0.05l0.1,0.05c2.86,1.5,6.99,4.28,10.43,9.01c3.72,5.12,5.07,10.34,5.54,13.83H79.48
	c1.4-3.91,2.28-7.89,2.61-11.82c0.1-1.07,0.15-2.19,0.16-3.42v-0.08C82.26,91.14,82.26,91.09,82.26,91.04"/>
<path class="st0" d="M81.46,52.75c-0.17-0.39-0.37-0.76-0.62-1.2c-0.05-0.07-0.09-0.14-0.14-0.22c-0.07-0.11-0.14-0.23-0.22-0.34
	l-0.19-0.28l-0.2-0.27c-0.12-0.16-0.25-0.33-0.42-0.53c-0.15-0.18-0.31-0.36-0.45-0.51c-0.11-0.11-0.21-0.22-0.32-0.33
	c-0.05-0.05-0.11-0.11-0.16-0.16l-0.1-0.1c-0.07-0.06-0.13-0.13-0.2-0.19c-0.06-0.06-0.12-0.11-0.19-0.17
	c-0.06-0.05-0.13-0.11-0.19-0.16c-0.06-0.05-0.13-0.1-0.19-0.15c-0.07-0.06-0.15-0.12-0.23-0.18c-0.06-0.05-0.12-0.09-0.18-0.13
	c-0.09-0.07-0.18-0.14-0.28-0.2c-0.09-0.07-0.19-0.13-0.28-0.19c-0.12-0.08-0.24-0.16-0.36-0.23c-0.05-0.03-0.1-0.06-0.16-0.09
	c-0.12-0.07-0.24-0.14-0.35-0.21l-0.02-0.01c-0.02-0.01-0.03-0.02-0.05-0.03c-0.03-0.02-0.05-0.03-0.08-0.05
	c-0.05-0.03-0.1-0.05-0.14-0.08c-0.8-0.43-1.65-0.79-2.54-1.07c-0.44-0.14-0.89-0.27-1.34-0.37c-0.15-0.03-0.28-0.06-0.41-0.09
	c-0.16-0.04-0.29-0.06-0.41-0.08c-0.04-0.01-0.08-0.02-0.11-0.02c-0.02,0-0.03-0.01-0.05-0.01c-0.01,0-0.03-0.01-0.05-0.01
	c-3.21-0.55-7.21-0.09-10.7,1.24c-1.67,0.64-5.91,2.89-10.03,6.87l-0.02,0.02c0,0,0,0-0.01,0.01l-0.14,0.13
	c-0.04,0.04-0.08,0.07-0.12,0.11c-0.1,0.09-0.19,0.18-0.28,0.27c-0.09,0.09-0.18,0.18-0.27,0.27l-0.01,0.01
	c-0.17,0.17-0.34,0.34-0.53,0.54v0l-0.09,0.09c-0.04,0.05-0.09,0.1-0.14,0.15c-0.29,0.31-0.54,0.59-0.76,0.84
	c-0.14,0.15-0.27,0.31-0.4,0.47c-0.06,0.07-0.12,0.14-0.18,0.22l-0.18,0.22c-0.02,0.02-0.04,0.04-0.06,0.07
	c-0.02,0.02-0.04,0.04-0.05,0.07l-0.06,0.07c-0.02,0.02-0.04,0.05-0.06,0.07c-0.09,0.11-0.18,0.22-0.27,0.34
	c-0.1,0.13-0.2,0.26-0.3,0.39c-0.18,0.24-0.36,0.47-0.49,0.65l-0.01,0.01c-0.38,0.53-0.78,1.1-1.21,1.75
	c-0.14,0.21-0.27,0.41-0.4,0.62c-0.11,0.17-0.21,0.34-0.32,0.51c-0.16,0.25-0.31,0.51-0.47,0.76c-0.12,0.2-0.24,0.41-0.37,0.61
	l-0.02,0.03c-0.13,0.21-0.25,0.43-0.37,0.65l-0.02,0.03c-0.28,0.49-0.51,0.9-0.72,1.28l-0.1,0.17c-0.09,0.16-0.18,0.32-0.27,0.49
	c-0.45,0.85-0.94,1.75-1.43,2.68L40,67.8c0.25,0.24,0.5,0.48,0.76,0.71c0.27,0.24,0.54,0.48,0.81,0.71
	c0.14,0.11,0.28,0.23,0.41,0.34c0.4,0.33,0.82,0.64,1.28,0.96c0.15,0.1,0.31,0.21,0.52,0.35c0.27,0.18,0.53,0.34,0.79,0.49
	c0.09,0.05,0.18,0.11,0.27,0.16c0.17,0.1,0.3,0.17,0.43,0.24c0.04,0.02,0.07,0.04,0.11,0.06l0.02,0.01
	c0.08,0.05,0.17,0.09,0.25,0.13c0.29,0.15,0.56,0.28,0.83,0.4c0.35,0.16,0.72,0.31,1.13,0.47c0.08,0.03,0.16,0.06,0.24,0.09
	c0.03,0.01,0.06,0.02,0.09,0.03c0.17,0.06,0.34,0.12,0.5,0.17c0.45,0.15,0.91,0.29,1.38,0.41c0.12,0.03,0.25,0.07,0.4,0.1
	c0.04,0.01,0.07,0.02,0.1,0.03c0.14,0.03,0.27,0.07,0.41,0.1c0.15,0.04,0.31,0.07,0.46,0.11c0.38,0.09,0.79,0.17,1.24,0.25
	c1.29,0.24,2.58,0.44,3.95,0.64c0.39,0.06,0.79,0.12,1.19,0.18l0.08,0.01c0.41,0.06,0.82,0.13,1.24,0.2
	c0.51,0.09,0.94,0.16,1.33,0.23c0.03,0,0.06,0.01,0.09,0.02c0.02,0,0.05,0.01,0.07,0.01l0.01,0c0.08,0.01,0.16,0.03,0.24,0.04
	c0.09,0.02,0.17,0.03,0.25,0.05l1.38,0.29c0.16,0.04,0.31,0.08,0.47,0.12l0.22,0.06c0.11,0.03,0.22,0.06,0.33,0.09
	c0.34,0.09,0.69,0.18,1.03,0.29l1.01,0.31c0.03,0.01,0.06,0.02,0.08,0.03l0.58,0.21c0.22,0.08,0.44,0.16,0.66,0.24
	c0.11,0.04,0.22,0.08,0.33,0.13c0.11,0.04,0.22,0.09,0.33,0.13c0.11,0.05,0.21,0.09,0.32,0.13l0.32,0.13
	c0.11,0.05,0.21,0.09,0.32,0.14l1.27,0.6c0.17,0.09,0.34,0.18,0.51,0.26l0.11,0.06c0.14,0.07,0.29,0.15,0.43,0.23l0.18,0.1
	c0.3,0.17,0.61,0.34,0.9,0.52L72,79.74c0,0,0.01,0.01,0.02,0.01c0,0,0.01,0.01,0.01,0.01c0.16,0.09,0.31,0.19,0.46,0.29l0.68,0.44
	c0.43,0.28,0.85,0.57,1.25,0.87c0.13,0.1,0.29,0.21,0.45,0.33c0.15,0.11,0.3,0.23,0.45,0.34c0.03,0.02,0.06,0.05,0.09,0.07
	c0.04,0.03,0.09,0.07,0.13,0.1l0.04,0.03c0.06,0.05,0.13,0.1,0.19,0.16c0.1,0.07,0.2,0.16,0.29,0.23c0.44,0.36,0.87,0.73,1.29,1.11
	c0.07,0.06,0.12,0.11,0.18,0.16c0.2,0.18,0.39,0.36,0.58,0.54c0.19,0.18,0.38,0.37,0.57,0.55c0.1,0.1,0.21,0.21,0.31,0.32
	c0.2,0.21,0.54,0.02,0.49-0.26c-0.22-1.14-0.48-2.27-0.79-3.36c-0.1-0.36-0.22-0.75-0.35-1.17l-0.12-0.39
	c-0.02-0.05-0.03-0.11-0.05-0.16l-0.01-0.03c-0.04-0.13-0.09-0.27-0.13-0.4c-0.02-0.06-0.04-0.12-0.06-0.18l-0.21-0.59
	c-0.01-0.03-0.02-0.07-0.03-0.11c-0.01-0.04-0.02-0.08-0.03-0.12l-0.03-0.12c-0.03-0.11-0.07-0.23-0.1-0.35l-0.11-0.45
	c-0.02-0.08-0.03-0.15-0.05-0.23l-0.02-0.08c-0.01-0.05-0.02-0.1-0.03-0.15c-0.03-0.16-0.06-0.32-0.08-0.46
	c-0.09-0.61-0.13-1.24-0.13-1.87c0-0.07,0-0.13,0-0.2l0-0.1c0-0.06,0-0.12,0.01-0.17c0.01-0.33,0.04-0.65,0.08-0.97
	c0.02-0.15,0.05-0.33,0.08-0.54c0-0.01,0-0.02,0-0.03c0.01-0.08,0.03-0.16,0.05-0.24c0.02-0.1,0.04-0.19,0.06-0.28
	c0.02-0.09,0.04-0.18,0.06-0.27c0.04-0.15,0.08-0.3,0.12-0.45c0.03-0.11,0.07-0.23,0.1-0.34c0.01-0.03,0.02-0.07,0.03-0.1l0-0.01
	c0.06-0.17,0.1-0.3,0.15-0.43l0-0.01c0.04-0.12,0.09-0.23,0.13-0.35v-0.01l0.01-0.01c0.02-0.04,0.03-0.09,0.05-0.13
	c0.05-0.13,0.1-0.25,0.16-0.37l0.04-0.1c0.03-0.06,0.06-0.13,0.09-0.19c0-0.01,0.01-0.02,0.01-0.03c0.02-0.03,0.04-0.07,0.06-0.12
	c0.03-0.07,0.07-0.14,0.11-0.21l0.12-0.23c0.03-0.05,0.06-0.11,0.09-0.16c0.05-0.08,0.09-0.16,0.14-0.23
	c0.03-0.05,0.06-0.1,0.09-0.15c0.02-0.04,0.05-0.07,0.07-0.11l0.03-0.04c0.01-0.01,0.01-0.03,0.03-0.04l0.05-0.07
	c0.05-0.07,0.09-0.14,0.14-0.21l0.08-0.11c0,0,0.01-0.01,0.01-0.01v-0.03l0.02,0l1.71-2.85c0.09-0.15,0.02-0.35-0.15-0.42
	c-0.14-0.05-0.28-0.11-0.43-0.18c-0.29-0.12-0.59-0.27-0.92-0.45c-0.54-0.3-1.08-0.65-1.65-1.07c-0.14-0.1-0.28-0.21-0.42-0.33
	c-0.11-0.09-0.23-0.18-0.34-0.28c-0.06-0.05-0.12-0.1-0.18-0.16l-0.46-0.41l-0.78-0.74c-0.09-0.09-0.12-0.23-0.05-0.35l0.46-0.85
	c0.1-0.19,0.2-0.36,0.3-0.52c0.08-0.13,0.16-0.25,0.24-0.38c0.08-0.13,0.16-0.25,0.25-0.37c0.1-0.15,0.21-0.31,0.35-0.49l0.19-0.24
	c0.06-0.08,0.12-0.16,0.19-0.23c0.1-0.12,0.2-0.23,0.29-0.34c0.1-0.12,0.2-0.23,0.3-0.33c0.27-0.29,0.56-0.57,0.86-0.84
	c0.18-0.17,0.38-0.33,0.59-0.5L80,55.33c0.05-0.04,0.1-0.07,0.15-0.11l0.01-0.01c0.08-0.06,0.15-0.11,0.23-0.17
	c0.12-0.09,0.25-0.17,0.37-0.26c0.12-0.08,0.24-0.15,0.36-0.23l0.03-0.01c0.14-0.09,0.28-0.17,0.43-0.25
	c0.11-0.06,0.21-0.12,0.32-0.17c0.03-0.02,0.05-0.03,0.08-0.05C81.82,53.62,81.66,53.19,81.46,52.75 M67.9,59.36h-0.05
	c-1.41,0-2.56-1.13-2.59-2.54c-0.03-1.43,1.12-2.61,2.54-2.64c1.43-0.03,2.61,1.11,2.64,2.54C70.47,58.15,69.33,59.33,67.9,59.36"/>
<path class="st0" d="M51.97,78.26c0.17,0.04,0.26,0.22,0.2,0.39c-2.86,7.38-7.01,13.93-12.35,19.46l-0.01,0.01
	c-0.18,0.19-0.5,0.06-0.5-0.2V72.21c0-0.25,0.3-0.38,0.48-0.21c0.49,0.44,0.97,0.84,1.45,1.22c0.47,0.37,0.95,0.72,1.45,1.06
	c0,0,0.01,0,0.01,0s0,0,0,0c0.31,0.21,0.59,0.4,0.89,0.58c0.82,0.51,1.68,0.98,2.54,1.39c0.13,0.06,0.27,0.12,0.4,0.18
	c0.01,0.01,0.02,0.01,0.03,0.01l0.39,0.17c0.07,0.03,0.14,0.06,0.21,0.09c0.07,0.03,0.14,0.06,0.21,0.09
	c0.01,0.01,0.03,0.01,0.04,0.02c0.12,0.05,0.23,0.09,0.34,0.14l0.02,0.01c0.04,0.01,0.07,0.03,0.11,0.04L47.92,77
	c0.04,0.01,0.07,0.03,0.11,0.04l0.08,0.03c0.25,0.1,0.48,0.18,0.69,0.25c0.93,0.32,1.84,0.6,2.71,0.82
	C51.66,78.19,51.81,78.23,51.97,78.26"/>
<path class="st0" d="M72.98,106.5H59.15c0,0,0,0,0,0c2.39-8.75,0.46-15.83,0.44-15.9l-0.07-0.23l-0.04,0.24
	c-0.91,5.78-2.16,11.13-3.73,15.89H39.31v-2.86c0,0,0,0,0,0c3.96-3.55,7.25-7.65,9.77-12.19c2.21-3.96,3.83-8.25,4.82-12.76
	c0.02,0,0.03,0.01,0.05,0.01c0.03,0.01,0.05,0.01,0.08,0.02c0.06,0.01,0.11,0.02,0.17,0.03c0.06,0.01,0.12,0.03,0.16,0.03
	c0.03,0.01,0.06,0.01,0.08,0.01c0.07,0.02,0.14,0.03,0.22,0.04l0.1,0.02c0.03,0.01,0.05,0.01,0.08,0.02l0.36,0.06l0.01,0
	c0.02,0,0.03,0.01,0.04,0.01c0.1,0.02,0.2,0.03,0.29,0.05l0.13,0.02c0.02,0,0.04,0.01,0.07,0.01l0.09,0.01
	c0.02,0,0.04,0.01,0.07,0.01c0.01,0,0.01,0,0.03,0.01l0.07,0.01c0.06,0.01,0.12,0.02,0.19,0.03c0.04,0,0.07,0.01,0.11,0.02
	l0.49,0.08c0.05,0.01,0.11,0.02,0.17,0.03l0.1,0.02c0.09,0.01,0.17,0.03,0.26,0.04l0.19,0.03c0.05,0.01,0.11,0.02,0.17,0.03
	l0.1,0.01c0.08,0.01,0.16,0.02,0.25,0.04c0.12,0.02,0.25,0.04,0.38,0.06c0.04,0,0.07,0.01,0.11,0.01c0.03,0,0.06,0.01,0.09,0.01
	l0.21,0.03c0.13,0.02,0.26,0.04,0.39,0.06c0.1,0.01,0.19,0.03,0.28,0.04l0.2,0.03c0.02,0,0.04,0.01,0.06,0.01l0.03,0.01
	c0.03,0,0.05,0.01,0.08,0.01c0.02,0,0.04,0,0.06,0.01l0.04,0.01c0.04,0.01,0.08,0.01,0.11,0.01l0.02,0c0.01,0,0.02,0,0.03,0
	l1.27,0.2c0.1,0.02,0.21,0.04,0.31,0.06c0.1,0.02,0.21,0.04,0.31,0.06c0.12,0.02,0.24,0.04,0.35,0.07c0.29,0.05,0.59,0.11,0.89,0.18
	l0.92,0.21l0.31,0.08c0.11,0.03,0.22,0.06,0.33,0.09l0.23,0.06c0.11,0.03,0.23,0.06,0.34,0.09l0.06,0.01
	c1.53,1.83,3.71,4.89,5.36,9.15C72.84,95.14,73.56,100.7,72.98,106.5"/>
</svg>
