<?xml version="1.0" encoding="utf-8"?>
<!-- Generator: Adobe Illustrator 28.0.0, SVG Export Plug-In . SVG Version: 6.00 Build 0)  -->
<svg version="1.1" id="Capa_1" xmlns="http://www.w3.org/2000/svg" xmlns:xlink="http://www.w3.org/1999/xlink" x="0px" y="0px"
	 viewBox="0 0 141.73 141.73" style="enable-background:new 0 0 141.73 141.73;" xml:space="preserve">
<style type="text/css">
	.st0{fill:#FFFFFF;}
</style>
<g>
	<g>
		<g>
			<path class="st0" d="M41.7,76.3c0,0.65,0,0.83,0,0.83s-5.88,0-5.97,0c-1.57,0-2.62-0.52-3.32-1.91
				c-0.58-1.11-2.83-5.48-3.66-7.08c-0.58,0.03-1.23,0.03-1.91,0.03h-0.68v4.59c0,1.94,0.52,3.54,2.89,3.54c0,0.37,0,0.83,0,0.83
				H18.04c0,0,0-0.46,0-0.83c2.37,0,2.89-1.6,2.89-3.54V59.99c0-1.94-0.52-3.54-2.89-3.54c0-0.37,0-0.86,0-0.86h8.8
				c6.92,0,10.74,1.97,10.74,6.31c0,2.55-1.35,4.31-3.91,5.29l3.39,5.57C38.16,74.55,39.37,76.3,41.7,76.3z M32.01,61.9
				c0-3.32-1.66-5.08-5.29-5.08h-0.55v10.16h0.55C30.35,66.98,32.01,65.22,32.01,61.9z"/>
			<path class="st0" d="M59.71,75.13c-0.74,1.57-1.82,2.28-3.54,2.28c-2.06,0-3.45-0.74-3.85-2.46c-0.89,1.32-2.37,2.46-4.86,2.46
				c-3.08,0-5.29-1.6-5.32-5.45v-2.31c0-1.94,0.06-3.54-2.28-3.54c0-0.37,0-0.49,0-0.83c1.79,0,4.56-0.77,6.4-2.4
				c0.52,0,0.83,0,0.83,0v8.59c0,1.82,0.52,3.45,2.62,3.45c1.88,0,2.49-1.63,2.49-3.66v-1.6c0-1.94,0.06-3.54-2.28-3.54
				c0-0.37,0-0.49,0-0.83c1.79,0,4.56-0.77,6.43-2.4c0.52,0,0.83,0,0.83,0v9.85c0,1.48,0.03,2.52,0.77,2.74
				c0.52,0.15,0.92-0.12,1.23-0.65L59.71,75.13z"/>
			<path class="st0" d="M77.44,76.21c-0.55,0.65-1.51,1.2-3.23,1.2c-1.66,0-3.6-0.55-4.06-2.03c-1.08,1.66-2.8,2.03-4.34,2.03
				c-2.55,0-4.96-0.83-5.39-3.08c-0.43-2.25,0.71-4.34,4.34-5.08c2.89-0.58,4.68,0.03,4.34-2.09c-0.28-1.57-0.83-3.2-2.37-3.2
				c-1.94-0.15-2.83,1.75-1.63,2.74c-0.74,1.32-2,1.42-2.86,1.02c-0.8-0.4-1.14-1.26-0.71-2.34c0.74-2,3.42-2.49,5.17-2.49
				c4.92,0,6.96,1.63,7.51,5.51c0.43,3.11,0.58,4.34,0.58,4.34c0.18,1.08,0.37,2.31,0.68,2.71c0.34,0.4,1.02,0.43,1.72,0.09
				C77.31,75.87,77.34,75.9,77.44,76.21z M69.77,72.36c-0.09-1.11-0.22-2.25-0.34-3.02c-0.25,0.49-0.58,0.65-2.15,1.08
				c-1.32,0.4-2.25,1.54-2.03,3.11c0.22,1.42,1.6,2.28,2.74,1.97C69.47,75.16,69.87,73.84,69.77,72.36z"/>
			<path class="st0" d="M88.64,76.3c0,0.37,0,0.83,0,0.83H78.36c0,0,0-0.46,0-0.83c2.34,0,2.65-1.6,2.65-3.54V62.39
				c0-1.94-0.31-3.54-2.65-3.54c0-0.37,0-0.52,0-0.86c1.79,0,4.92-0.74,6.8-2.4c0.52,0,0.83,0,0.83,0v17.17
				C85.99,74.7,86.27,76.3,88.64,76.3z"/>
			<path class="st0" d="M107.41,75.13c-0.74,1.57-1.82,2.28-3.54,2.28c-1.6,0-2.77-0.43-3.42-1.45c-0.98,0.86-2.31,1.45-3.82,1.45
				c-4.65,0-8-2.92-8-7.26c0-4.34,3.32-7.91,8-7.26c1.35,0.18,2.46,0.8,3.26,1.6v-2.09c0-1.94-0.31-3.54-2.65-3.54
				c0-0.37,0-0.52,0-0.86c1.79,0,4.92-0.74,6.8-2.4c0.52,0,0.83,0,0.83,0v17.14c0,1.48,0.03,2.55,0.77,2.74
				c0.52,0.12,0.92-0.12,1.23-0.65L107.41,75.13z M99.57,69.62c-0.65-3.66-2.12-5.85-4-5.54c-1.85,0.34-2.49,2.89-1.85,6.59
				c0.65,3.66,2.12,5.85,4,5.54C99.57,75.87,100.21,73.32,99.57,69.62z"/>
			<path class="st0" d="M123.7,70.15c0,4.34-3.35,7.26-7.97,7.26c-4.65,0-8-2.92-8-7.26c0-4.34,3.35-7.26,8-7.26
				C120.34,62.88,123.7,65.81,123.7,70.15z M118.65,69.62c-0.65-3.69-2.12-5.88-4-5.54c-1.88,0.34-2.49,2.89-1.85,6.59
				c0.65,3.66,2.12,5.85,3.97,5.54C118.65,75.87,119.29,73.32,118.65,69.62z"/>
		</g>
		<g>
			<path class="st0" d="M44.4,88.3c-0.35,0-0.66,0.23-0.94,0.69c-0.28,0.46-0.42,1.15-0.42,2.08c0,0.93,0.14,1.64,0.42,2.13
				c0.28,0.49,0.6,0.74,0.96,0.74c0.3,0,0.64-0.18,1.02-0.53s0.73-0.78,1.06-1.27h0.15l-0.18,2.06c-0.76,0.18-1.47,0.27-2.15,0.28
				c-0.43,0-0.84-0.06-1.21-0.17c-0.38-0.11-0.72-0.3-1.04-0.54c-0.32-0.24-0.57-0.58-0.76-1.02c-0.19-0.44-0.28-0.95-0.28-1.55
				c0-1.12,0.31-1.97,0.93-2.55c0.62-0.58,1.41-0.88,2.39-0.88c0.56,0,1.27,0.09,2.12,0.27l0.18,2.02H46.5
				c-0.34-0.48-0.7-0.9-1.08-1.24C45.05,88.47,44.71,88.3,44.4,88.3L44.4,88.3z"/>
			<path class="st0" d="M55.41,94.49c-1.04,0-1.86-0.3-2.47-0.89s-0.91-1.42-0.91-2.48c0-1.06,0.3-1.88,0.91-2.47
				c0.61-0.59,1.43-0.88,2.47-0.88c1.04,0,1.87,0.29,2.47,0.88c0.61,0.59,0.91,1.41,0.91,2.47c0,1.06-0.3,1.88-0.91,2.47
				C57.27,94.19,56.45,94.48,55.41,94.49L55.41,94.49z M55.66,93.94c0.36,0,0.65-0.18,0.86-0.53s0.32-0.84,0.32-1.47
				c0-0.25-0.01-0.52-0.04-0.8c-0.03-0.29-0.09-0.6-0.17-0.94c-0.08-0.34-0.18-0.65-0.3-0.91c-0.12-0.27-0.28-0.5-0.48-0.68
				c-0.2-0.18-0.43-0.27-0.68-0.27c-0.36,0-0.65,0.18-0.86,0.53c-0.21,0.35-0.32,0.84-0.32,1.47c0,0.32,0.03,0.67,0.08,1.05
				c0.05,0.38,0.14,0.76,0.26,1.17c0.12,0.4,0.3,0.73,0.53,1C55.09,93.81,55.36,93.94,55.66,93.94L55.66,93.94z"/>
			<path class="st0" d="M68.91,89.93h-0.15c-0.15-0.4-0.39-0.75-0.73-1.05c-0.34-0.3-0.77-0.44-1.3-0.44h-0.47v2.25h0.46
				c0.3,0,0.55-0.07,0.76-0.21c0.21-0.14,0.36-0.3,0.46-0.48h0.11v1.92h-0.11c-0.11-0.22-0.27-0.41-0.48-0.57
				c-0.21-0.16-0.46-0.23-0.75-0.22l-0.46,0.02v2.02c0,0.33,0.04,0.55,0.13,0.66c0.09,0.11,0.31,0.24,0.66,0.38v0.15h-3.27v-0.15
				c0.28-0.15,0.45-0.27,0.52-0.38c0.07-0.11,0.11-0.33,0.11-0.66v-4.08c0-0.33-0.04-0.55-0.11-0.66s-0.24-0.24-0.52-0.38v-0.14
				h4.96L68.91,89.93z"/>
			<path class="st0" d="M79.27,89.93h-0.15c-0.15-0.4-0.39-0.75-0.73-1.05c-0.34-0.3-0.77-0.44-1.3-0.44h-0.47v2.25h0.46
				c0.3,0,0.55-0.07,0.76-0.21c0.21-0.14,0.36-0.3,0.46-0.48h0.11v1.92H78.3c-0.11-0.22-0.27-0.41-0.48-0.57
				c-0.21-0.16-0.46-0.23-0.75-0.22l-0.46,0.02v2.02c0,0.33,0.04,0.55,0.13,0.66c0.09,0.11,0.31,0.24,0.66,0.38v0.15h-3.27v-0.15
				c0.28-0.15,0.45-0.27,0.52-0.38c0.07-0.11,0.11-0.33,0.11-0.66v-4.08c0-0.33-0.04-0.55-0.11-0.66c-0.07-0.11-0.24-0.24-0.52-0.38
				v-0.14h4.96L79.27,89.93z"/>
			<path class="st0" d="M89.93,92.36l-0.22,2.01h-5.22v-0.15c0.28-0.15,0.45-0.27,0.52-0.38c0.07-0.11,0.11-0.33,0.11-0.66v-4.08
				c0-0.33-0.04-0.55-0.11-0.66c-0.07-0.11-0.24-0.24-0.52-0.38V87.9h4.9l0.16,2.03H89.4c-0.15-0.4-0.39-0.75-0.73-1.05
				c-0.34-0.3-0.77-0.44-1.3-0.44h-0.41v2.25h0.51c0.29,0,0.53-0.07,0.74-0.21s0.36-0.3,0.47-0.49h0.13v1.92h-0.13
				c-0.11-0.23-0.27-0.42-0.48-0.57c-0.2-0.15-0.45-0.22-0.73-0.21l-0.51,0.02v2.22c0,0.14,0.07,0.25,0.22,0.33
				c0.15,0.08,0.33,0.12,0.56,0.12h0.12c0.4,0,0.76-0.15,1.1-0.45s0.61-0.64,0.81-1.02L89.93,92.36z"/>
			<path class="st0" d="M100.7,92.36l-0.22,2.01h-5.22v-0.15c0.28-0.15,0.45-0.27,0.52-0.38c0.07-0.11,0.11-0.33,0.11-0.66v-4.08
				c0-0.33-0.04-0.55-0.11-0.66c-0.07-0.11-0.24-0.24-0.52-0.38V87.9h4.9l0.16,2.03h-0.15c-0.15-0.4-0.39-0.75-0.73-1.05
				c-0.34-0.3-0.77-0.44-1.3-0.44h-0.41v2.25h0.51c0.29,0,0.53-0.07,0.74-0.21s0.36-0.3,0.47-0.49h0.13v1.92h-0.13
				c-0.11-0.23-0.27-0.42-0.48-0.57c-0.2-0.15-0.45-0.22-0.73-0.21l-0.51,0.02v2.22c0,0.14,0.07,0.25,0.22,0.33s0.33,0.12,0.56,0.12
				h0.12c0.4,0,0.76-0.15,1.1-0.45s0.61-0.64,0.81-1.02L100.7,92.36z"/>
		</g>
	</g>
</g>
</svg>
